<svg width="24" height="25" viewBox="0 0 24 25" fill="none" xmlns="http://www.w3.org/2000/svg">
<path d="M23.7216 8.59071L21.644 0L14.9129 6.44865L13.0949 6.08078L13.1166 6.51346L14.6967 6.8596L13.0514 10.0622L12.7483 2.683L12.3913 8.77464L12.6659 23.037L12.7701 23.0026L16.3629 21.5528L16.0815 20.5575L22.5095 14.7363L21.9902 11.4472L22.6826 9.02339L23.7216 8.59071ZM22.3364 4.41448L23.2454 8.39628L22.7475 8.56935L22.163 6.75171L22.3364 4.41448ZM21.9254 2.72646L19.523 4.50102L21.514 0.995356L21.9254 2.72646ZM21.9037 3.24568L21.7954 6.90268L19.3929 9.43472V5.08505L21.9037 3.24568ZM20.8647 1.29805L18.8736 4.97678L15.9084 6.10213L20.8647 1.29805ZM18.9602 5.3233L18.8954 9.54298L15.4325 6.72999L18.9602 5.3233ZM14.6315 14.8232L14.2201 13.2434L15.8649 13.0269L14.6315 14.8232ZM14.9342 17.4631L13.917 18.2854L14.1118 14.3253L14.9342 17.4631ZM16.8605 14.758L15.4318 14.6498L15.2152 14.7797L16.189 13.1569L16.8605 14.758ZM16.6225 13.0704L17.7698 13.4382L17.207 14.5636L16.6225 13.0704ZM16.0924 12.4751L14.8263 12.6212L16.823 11.2093L16.0924 12.4751ZM15.5405 15.018L17.0988 15.1911L18.0726 16.4895L16.4708 16.3812L14.9556 15.3641L15.5405 15.018ZM18.1378 13.5896L21.1247 14.5849L17.5754 14.6932L18.1378 13.5896ZM17.8564 13.0052L16.5794 12.6156L17.4453 10.7979L18.8954 10.3435L17.8564 13.0052ZM17.3584 10.4087L15.7353 7.48746L18.7436 9.99777L17.3584 10.4087ZM14.9342 7.11921L16.9905 10.4735L13.0514 11.0579L14.9342 7.11921ZM16.4925 11.0145L13.96 12.7456L13.0293 11.4689L16.4925 11.0145ZM13.7873 13.1135L13.0949 14.9528L13.0732 12.2694L13.7873 13.1135ZM13.0297 16.3164L13.679 14.4988L13.4625 18.5888L13.008 18.4158L13.0297 16.3164ZM13.3546 18.9781L12.9432 19.3677L12.8997 18.8698L13.3546 18.9781ZM12.8997 19.9086L13.5708 19.2377L13.9822 20.2548L12.8566 20.8392L12.8997 19.9086ZM12.7701 22.5051L12.7918 22.202L14.3718 21.899L12.7701 22.5051ZM12.7918 21.6614L12.8135 21.3153L14.2204 20.5147L15.3891 21.294L12.7918 21.6614ZM14.3718 20.19L13.9173 18.935L15.0211 17.9179L15.8653 20.9474L14.3718 20.19ZM15.8649 19.5407L14.9342 15.8403L16.3412 16.6843L15.8649 19.5407ZM16.2329 19.7569L16.7091 16.8139L18.3974 16.8574L18.8519 17.5714L16.2329 19.7569ZM19.1333 17.2466L17.6181 15.1907L21.7519 14.9528L19.1333 17.2466ZM18.2891 13.1786L19.2416 10.5387L21.7954 14.3474L18.2891 13.1786ZM19.8692 10.6683L21.6223 11.5554L21.9037 13.8709L19.8692 10.6683ZM21.6006 11.1875L19.7391 10.0839L22.2499 9.15338L21.6006 11.1875ZM19.934 9.54298L21.9037 7.33574L22.4447 8.7207L19.934 9.54298Z" fill="white"/>
<path d="M16.8605 14.758L15.4322 14.6501L15.2156 14.7798L16.1898 13.1569L16.8605 14.758Z" fill="white"/>
<path d="M14.6315 14.8232L14.2201 13.2434L15.8649 13.0269L14.6315 14.8232Z" fill="#333333"/>
<path d="M16.6225 13.0704L17.7698 13.4382L17.207 14.5636L16.6225 13.0704Z" fill="#333333"/>
<path d="M21.1243 14.585L17.575 14.6932L18.1378 13.5896" fill="#333333"/>
<path d="M8.64106 12.8692L6.2386 15.4012V11.0516" fill="white"/>
<path d="M13.3546 18.9781L12.9432 19.3673L12.8997 18.8698" fill="#333333"/>
<path d="M12.9004 19.9086L13.5779 19.2377L13.993 20.2548L12.8566 20.8392L12.9004 19.9086Z" fill="#333333"/>
<path d="M11.8551 6.49177V6.40598C11.8551 6.23815 11.7191 6.10254 11.5516 6.10254H11.12C10.9521 6.10254 10.8165 6.23853 10.8165 6.40598V13.2989C10.8165 13.3611 10.7974 13.4214 10.7621 13.4724L6.97485 18.9096C6.93926 18.9605 6.92052 19.0212 6.92052 19.083V22.725C6.92052 22.7546 6.92464 22.7838 6.93326 22.8119C7.03068 23.1379 7.5084 23.0817 7.52751 22.7423L7.68038 20.0304C7.68338 19.975 7.70174 19.9214 7.73321 19.8757L11.8023 13.9489C11.8371 13.8983 11.8555 13.8384 11.8555 13.7769V6.49177H11.8551Z" fill="white"/>
<path d="M1.01627 11.3164C1.01627 11.3164 1.96872 9.82319 2.61804 10.862L4.50119 13.394L8.24539 6.59924L4.63083 5.12775L2.14182 6.68578L0.951454 8.91475L1.01627 11.3164Z" fill="#333333"/>
<path d="M7.30383 11.5869L5.12843 13.6319L6.58931 15.5148L8.82953 15.6444L9.73851 13.3075L8.73212 11.7169" fill="#333333"/>
<path d="M9.4811 24.991C10.8487 25.0918 11.8903 24.3403 11.8903 22.8179V22.1698C11.8903 21.9046 11.7131 21.6719 11.4568 21.6026C10.9307 21.4603 10.093 21.0014 9.92847 19.525C9.9251 19.4962 9.91986 19.4677 9.91236 19.4396C9.85129 19.216 9.61561 18.0273 11.462 17.8104C11.7565 17.7759 11.9799 17.5279 11.9799 17.2312V6.48199C11.9799 6.19204 11.7667 5.94591 11.4793 5.90508L11.395 5.89309C11.3676 5.88935 11.3403 5.8871 11.3125 5.8871H8.41551C8.31959 5.8871 8.2248 5.8635 8.14012 5.81817L5.81334 4.57182C5.78 4.55384 5.74028 4.55159 5.70768 4.53249C4.26403 3.69972 3.73461 3.89714 3.21417 4.40212C0.313759 7.21512 1.03914 7.11884 0.358346 9.13802C0.355723 9.14589 0.355348 9.15451 0.353849 9.16237C0.302517 9.49728 -0.749215 16.4554 1.03802 11.7409C1.05938 11.6843 1.07174 11.6251 1.07474 11.5648C1.10134 11.0193 1.31491 8.16027 2.96201 6.58539C2.98037 6.56815 2.99686 6.54942 3.01334 6.53032C3.14336 6.38047 4.33222 4.95318 6.31092 6.45577C6.56083 6.64532 6.61629 6.99896 6.43569 7.2552C5.75339 8.22246 4.19097 10.6226 4.15612 12.3683V18.9496C4.15612 18.9691 4.155 18.9882 4.15275 19.0073C4.12877 19.2163 4.04372 20.7912 6.55971 22.6883C6.67736 22.7771 6.75791 22.9059 6.78339 23.0513C6.83847 23.3637 6.81299 23.285 7.06553 23.8455C7.4522 24.7026 9.06858 25.0573 9.58789 24.9817L9.4811 24.991ZM6.01792 13.7046C6.31879 12.8692 7.59683 12.5508 7.72909 12.5508C8.68603 12.5508 8.84752 13.4439 8.84939 13.451C9.06483 14.3396 8.75947 14.752 8.62196 14.9363C8.57775 14.9955 8.50094 15.0199 8.4305 14.9966C6.66499 14.4182 6.17866 14.0358 6.04452 13.8713C6.00668 13.8248 5.99768 13.7612 6.01792 13.7046ZM7.42447 20.1945V22.5875C7.42447 22.8052 7.10337 22.8201 7.08276 22.6032C7.07265 22.498 7.06815 22.4253 7.06703 22.4066C7.06665 22.4032 7.06665 22.4002 7.06665 22.3968V19.8191C6.99172 18.6203 10.5385 14.1714 10.9435 13.6671C10.9678 13.6368 10.981 13.5993 10.981 13.56V6.61161C10.981 6.40107 11.1518 6.23025 11.3624 6.23025C11.558 6.23025 11.7161 6.38871 11.7161 6.58389V13.7053C11.7161 13.7525 11.6962 13.7975 11.6618 13.8301C9.83293 15.5406 8.16972 18.4296 7.61744 19.4385C7.49079 19.6704 7.42447 19.9303 7.42447 20.1945Z" fill="white"/>
<path d="M7.6845 14.4988C8.14803 14.4988 8.52379 14.1231 8.52379 13.6596C8.52379 13.1962 8.14803 12.8205 7.6845 12.8205C7.22098 12.8205 6.84521 13.1962 6.84521 13.6596C6.84521 14.1231 7.22098 14.4988 7.6845 14.4988Z" fill="white"/>
<path opacity="0.51" d="M7.68451 14.1556C7.95849 14.1556 8.18059 13.9336 8.18059 13.6596C8.18059 13.3857 7.95849 13.1636 7.68451 13.1636C7.41053 13.1636 7.18843 13.3857 7.18843 13.6596C7.18843 13.9336 7.41053 14.1556 7.68451 14.1556Z" fill="white"/>
<path d="M10.4699 17.722C9.87452 18.0195 9.3747 18.5671 9.38781 19.2988C9.39081 19.4707 9.42902 19.64 9.49272 19.8C9.66582 20.2346 10.1574 21.3618 11.2219 21.7903C11.6123 21.9477 11.9634 22.0822 11.9795 21.6615C12.0023 21.0666 11.9593 18.4806 11.9859 17.7329C12.0166 16.8649 11.232 17.341 10.4699 17.722Z" fill="#333333"/>
</svg>
